<mxfile host="app.diagrams.net" modified="2021-04-30T21:58:39.515Z" agent="5.0 (Windows NT 10.0; Win64; x64) AppleWebKit/537.36 (KHTML, like Gecko) Chrome/90.0.4430.93 Safari/537.36" etag="Ck6q-XeK7PjlVMsHbK2y" version="14.6.6" type="github">
  <diagram id="C5RBs43oDa-KdzZeNtuy" name="Page-1">
    <mxGraphModel dx="1695" dy="520" grid="1" gridSize="10" guides="1" tooltips="1" connect="1" arrows="1" fold="1" page="1" pageScale="1" pageWidth="827" pageHeight="1169" math="0" shadow="0">
      <root>
        <mxCell id="WIyWlLk6GJQsqaUBKTNV-0" />
        <mxCell id="WIyWlLk6GJQsqaUBKTNV-1" parent="WIyWlLk6GJQsqaUBKTNV-0" />
        <mxCell id="WIyWlLk6GJQsqaUBKTNV-2" value="" style="rounded=0;html=1;jettySize=auto;orthogonalLoop=1;fontSize=11;endArrow=block;endFill=0;endSize=8;strokeWidth=1;shadow=0;labelBackgroundColor=none;edgeStyle=orthogonalEdgeStyle;" parent="WIyWlLk6GJQsqaUBKTNV-1" source="WIyWlLk6GJQsqaUBKTNV-3" target="WIyWlLk6GJQsqaUBKTNV-6" edge="1">
          <mxGeometry relative="1" as="geometry" />
        </mxCell>
        <mxCell id="WIyWlLk6GJQsqaUBKTNV-3" value="START" style="rounded=1;whiteSpace=wrap;html=1;fontSize=12;glass=0;strokeWidth=1;shadow=0;" parent="WIyWlLk6GJQsqaUBKTNV-1" vertex="1">
          <mxGeometry x="160" y="70" width="120" height="40" as="geometry" />
        </mxCell>
        <mxCell id="vSSBp46e8t80y5afnP1h-3" value="" style="edgeStyle=orthogonalEdgeStyle;rounded=0;orthogonalLoop=1;jettySize=auto;html=1;" edge="1" parent="WIyWlLk6GJQsqaUBKTNV-1" source="WIyWlLk6GJQsqaUBKTNV-6">
          <mxGeometry relative="1" as="geometry">
            <mxPoint x="100" y="210" as="targetPoint" />
          </mxGeometry>
        </mxCell>
        <mxCell id="vSSBp46e8t80y5afnP1h-10" style="edgeStyle=orthogonalEdgeStyle;rounded=0;orthogonalLoop=1;jettySize=auto;html=1;exitX=1;exitY=0.5;exitDx=0;exitDy=0;entryX=0;entryY=0.5;entryDx=0;entryDy=0;" edge="1" parent="WIyWlLk6GJQsqaUBKTNV-1" source="WIyWlLk6GJQsqaUBKTNV-6">
          <mxGeometry relative="1" as="geometry">
            <mxPoint x="340" y="210" as="targetPoint" />
          </mxGeometry>
        </mxCell>
        <mxCell id="WIyWlLk6GJQsqaUBKTNV-6" value="Mode?" style="rhombus;whiteSpace=wrap;html=1;shadow=0;fontFamily=Helvetica;fontSize=12;align=center;strokeWidth=1;spacing=6;spacingTop=-4;" parent="WIyWlLk6GJQsqaUBKTNV-1" vertex="1">
          <mxGeometry x="170" y="170" width="100" height="80" as="geometry" />
        </mxCell>
        <mxCell id="vSSBp46e8t80y5afnP1h-6" value="Auto" style="text;html=1;strokeColor=none;fillColor=none;align=center;verticalAlign=middle;whiteSpace=wrap;rounded=0;" vertex="1" parent="WIyWlLk6GJQsqaUBKTNV-1">
          <mxGeometry x="120" y="190" width="40" height="20" as="geometry" />
        </mxCell>
        <mxCell id="vSSBp46e8t80y5afnP1h-11" value="Manual" style="text;html=1;strokeColor=none;fillColor=none;align=center;verticalAlign=middle;whiteSpace=wrap;rounded=0;" vertex="1" parent="WIyWlLk6GJQsqaUBKTNV-1">
          <mxGeometry x="280" y="190" width="40" height="20" as="geometry" />
        </mxCell>
        <mxCell id="vSSBp46e8t80y5afnP1h-26" style="edgeStyle=orthogonalEdgeStyle;rounded=0;orthogonalLoop=1;jettySize=auto;html=1;exitX=0.5;exitY=0;exitDx=0;exitDy=0;" edge="1" parent="WIyWlLk6GJQsqaUBKTNV-1" source="vSSBp46e8t80y5afnP1h-12">
          <mxGeometry relative="1" as="geometry">
            <mxPoint x="220" y="140" as="targetPoint" />
            <Array as="points">
              <mxPoint x="32" y="140" />
            </Array>
          </mxGeometry>
        </mxCell>
        <mxCell id="vSSBp46e8t80y5afnP1h-62" style="edgeStyle=orthogonalEdgeStyle;rounded=0;orthogonalLoop=1;jettySize=auto;html=1;exitX=0.5;exitY=1;exitDx=0;exitDy=0;entryX=0.5;entryY=0;entryDx=0;entryDy=0;" edge="1" parent="WIyWlLk6GJQsqaUBKTNV-1" source="vSSBp46e8t80y5afnP1h-12" target="vSSBp46e8t80y5afnP1h-59">
          <mxGeometry relative="1" as="geometry" />
        </mxCell>
        <mxCell id="vSSBp46e8t80y5afnP1h-12" value="PB_Auto telah ditekan?" style="rhombus;whiteSpace=wrap;html=1;shadow=0;fontFamily=Helvetica;fontSize=12;align=center;strokeWidth=1;spacing=6;spacingTop=-4;" vertex="1" parent="WIyWlLk6GJQsqaUBKTNV-1">
          <mxGeometry x="-35" y="156.25" width="134.38" height="107.5" as="geometry" />
        </mxCell>
        <mxCell id="vSSBp46e8t80y5afnP1h-29" style="edgeStyle=orthogonalEdgeStyle;rounded=0;orthogonalLoop=1;jettySize=auto;html=1;exitX=0.5;exitY=0;exitDx=0;exitDy=0;" edge="1" parent="WIyWlLk6GJQsqaUBKTNV-1" source="vSSBp46e8t80y5afnP1h-13">
          <mxGeometry relative="1" as="geometry">
            <mxPoint x="220" y="135" as="targetPoint" />
            <Array as="points">
              <mxPoint x="410" y="135" />
            </Array>
          </mxGeometry>
        </mxCell>
        <mxCell id="vSSBp46e8t80y5afnP1h-66" style="edgeStyle=orthogonalEdgeStyle;rounded=0;orthogonalLoop=1;jettySize=auto;html=1;exitX=0.5;exitY=1;exitDx=0;exitDy=0;entryX=0.5;entryY=0;entryDx=0;entryDy=0;" edge="1" parent="WIyWlLk6GJQsqaUBKTNV-1" source="vSSBp46e8t80y5afnP1h-13" target="vSSBp46e8t80y5afnP1h-64">
          <mxGeometry relative="1" as="geometry" />
        </mxCell>
        <mxCell id="vSSBp46e8t80y5afnP1h-13" value="PB_Manual telah ditekan?" style="rhombus;whiteSpace=wrap;html=1;shadow=0;fontFamily=Helvetica;fontSize=12;align=center;strokeWidth=1;spacing=6;spacingTop=-4;" vertex="1" parent="WIyWlLk6GJQsqaUBKTNV-1">
          <mxGeometry x="342" y="155.25" width="136.88" height="109.5" as="geometry" />
        </mxCell>
        <mxCell id="vSSBp46e8t80y5afnP1h-43" style="edgeStyle=orthogonalEdgeStyle;rounded=0;orthogonalLoop=1;jettySize=auto;html=1;exitX=0.5;exitY=1;exitDx=0;exitDy=0;entryX=0.5;entryY=0;entryDx=0;entryDy=0;" edge="1" parent="WIyWlLk6GJQsqaUBKTNV-1" source="vSSBp46e8t80y5afnP1h-14">
          <mxGeometry relative="1" as="geometry">
            <mxPoint x="32.190000000000055" y="436" as="targetPoint" />
          </mxGeometry>
        </mxCell>
        <mxCell id="vSSBp46e8t80y5afnP1h-14" value="Silinder A &amp;amp; Silinder B bekerja sesuai arahan" style="rounded=1;whiteSpace=wrap;html=1;fontSize=12;glass=0;strokeWidth=1;shadow=0;" vertex="1" parent="WIyWlLk6GJQsqaUBKTNV-1">
          <mxGeometry x="-35" y="346" width="134" height="50" as="geometry" />
        </mxCell>
        <mxCell id="vSSBp46e8t80y5afnP1h-17" value="Yes" style="text;html=1;strokeColor=none;fillColor=none;align=center;verticalAlign=middle;whiteSpace=wrap;rounded=0;" vertex="1" parent="WIyWlLk6GJQsqaUBKTNV-1">
          <mxGeometry x="-20" y="250" width="40" height="20" as="geometry" />
        </mxCell>
        <mxCell id="vSSBp46e8t80y5afnP1h-28" value="No" style="text;html=1;strokeColor=none;fillColor=none;align=center;verticalAlign=middle;whiteSpace=wrap;rounded=0;" vertex="1" parent="WIyWlLk6GJQsqaUBKTNV-1">
          <mxGeometry x="99.38" y="120" width="40" height="20" as="geometry" />
        </mxCell>
        <mxCell id="vSSBp46e8t80y5afnP1h-30" value="No" style="text;html=1;strokeColor=none;fillColor=none;align=center;verticalAlign=middle;whiteSpace=wrap;rounded=0;" vertex="1" parent="WIyWlLk6GJQsqaUBKTNV-1">
          <mxGeometry x="302" y="110" width="40" height="20" as="geometry" />
        </mxCell>
        <mxCell id="vSSBp46e8t80y5afnP1h-36" style="edgeStyle=orthogonalEdgeStyle;rounded=0;orthogonalLoop=1;jettySize=auto;html=1;exitX=1;exitY=0.5;exitDx=0;exitDy=0;entryX=1;entryY=0.5;entryDx=0;entryDy=0;" edge="1" parent="WIyWlLk6GJQsqaUBKTNV-1" source="vSSBp46e8t80y5afnP1h-31" target="vSSBp46e8t80y5afnP1h-14">
          <mxGeometry relative="1" as="geometry">
            <Array as="points">
              <mxPoint x="140" y="470" />
              <mxPoint x="140" y="371" />
            </Array>
          </mxGeometry>
        </mxCell>
        <mxCell id="vSSBp46e8t80y5afnP1h-42" style="edgeStyle=orthogonalEdgeStyle;rounded=0;orthogonalLoop=1;jettySize=auto;html=1;exitX=0.5;exitY=1;exitDx=0;exitDy=0;entryX=0.5;entryY=0;entryDx=0;entryDy=0;" edge="1" parent="WIyWlLk6GJQsqaUBKTNV-1" source="vSSBp46e8t80y5afnP1h-31" target="vSSBp46e8t80y5afnP1h-39">
          <mxGeometry relative="1" as="geometry" />
        </mxCell>
        <mxCell id="vSSBp46e8t80y5afnP1h-31" value="Terdapat Masalah?" style="rhombus;whiteSpace=wrap;html=1;shadow=0;fontFamily=Helvetica;fontSize=12;align=center;strokeWidth=1;spacing=6;spacingTop=-4;" vertex="1" parent="WIyWlLk6GJQsqaUBKTNV-1">
          <mxGeometry x="-35" y="416" width="134.38" height="107.5" as="geometry" />
        </mxCell>
        <mxCell id="vSSBp46e8t80y5afnP1h-37" value="No" style="text;html=1;strokeColor=none;fillColor=none;align=center;verticalAlign=middle;whiteSpace=wrap;rounded=0;" vertex="1" parent="WIyWlLk6GJQsqaUBKTNV-1">
          <mxGeometry x="99" y="446" width="40" height="20" as="geometry" />
        </mxCell>
        <mxCell id="vSSBp46e8t80y5afnP1h-38" value="Yes" style="text;html=1;strokeColor=none;fillColor=none;align=center;verticalAlign=middle;whiteSpace=wrap;rounded=0;" vertex="1" parent="WIyWlLk6GJQsqaUBKTNV-1">
          <mxGeometry x="30" y="536" width="40" height="20" as="geometry" />
        </mxCell>
        <mxCell id="vSSBp46e8t80y5afnP1h-45" style="edgeStyle=orthogonalEdgeStyle;rounded=0;orthogonalLoop=1;jettySize=auto;html=1;exitX=0.5;exitY=1;exitDx=0;exitDy=0;entryX=0.5;entryY=0;entryDx=0;entryDy=0;" edge="1" parent="WIyWlLk6GJQsqaUBKTNV-1" source="vSSBp46e8t80y5afnP1h-39" target="vSSBp46e8t80y5afnP1h-44">
          <mxGeometry relative="1" as="geometry" />
        </mxCell>
        <mxCell id="vSSBp46e8t80y5afnP1h-39" value="Tekan Tombol EMERGENCY" style="rounded=1;whiteSpace=wrap;html=1;fontSize=12;glass=0;strokeWidth=1;shadow=0;" vertex="1" parent="WIyWlLk6GJQsqaUBKTNV-1">
          <mxGeometry x="-55.31" y="566" width="174.62" height="30" as="geometry" />
        </mxCell>
        <mxCell id="vSSBp46e8t80y5afnP1h-41" value="" style="edgeStyle=orthogonalEdgeStyle;rounded=0;orthogonalLoop=1;jettySize=auto;html=1;exitX=0.5;exitY=1;exitDx=0;exitDy=0;entryX=0.5;entryY=0;entryDx=0;entryDy=0;endArrow=none;" edge="1" parent="WIyWlLk6GJQsqaUBKTNV-1" source="vSSBp46e8t80y5afnP1h-14">
          <mxGeometry relative="1" as="geometry">
            <mxPoint x="32" y="396" as="sourcePoint" />
            <mxPoint x="30" y="396" as="targetPoint" />
          </mxGeometry>
        </mxCell>
        <mxCell id="vSSBp46e8t80y5afnP1h-47" style="edgeStyle=orthogonalEdgeStyle;rounded=0;orthogonalLoop=1;jettySize=auto;html=1;exitX=0.5;exitY=1;exitDx=0;exitDy=0;entryX=0.5;entryY=0;entryDx=0;entryDy=0;" edge="1" parent="WIyWlLk6GJQsqaUBKTNV-1" source="vSSBp46e8t80y5afnP1h-44" target="vSSBp46e8t80y5afnP1h-46">
          <mxGeometry relative="1" as="geometry" />
        </mxCell>
        <mxCell id="vSSBp46e8t80y5afnP1h-44" value="Tekan Tombol Reset" style="rounded=1;whiteSpace=wrap;html=1;fontSize=12;glass=0;strokeWidth=1;shadow=0;" vertex="1" parent="WIyWlLk6GJQsqaUBKTNV-1">
          <mxGeometry x="-36.31" y="616" width="135.31" height="30" as="geometry" />
        </mxCell>
        <mxCell id="vSSBp46e8t80y5afnP1h-49" style="edgeStyle=orthogonalEdgeStyle;rounded=0;orthogonalLoop=1;jettySize=auto;html=1;exitX=0.5;exitY=1;exitDx=0;exitDy=0;entryX=0.5;entryY=0;entryDx=0;entryDy=0;" edge="1" parent="WIyWlLk6GJQsqaUBKTNV-1" source="vSSBp46e8t80y5afnP1h-46" target="vSSBp46e8t80y5afnP1h-48">
          <mxGeometry relative="1" as="geometry" />
        </mxCell>
        <mxCell id="vSSBp46e8t80y5afnP1h-46" value="Tekan Tombol Return" style="rounded=1;whiteSpace=wrap;html=1;fontSize=12;glass=0;strokeWidth=1;shadow=0;" vertex="1" parent="WIyWlLk6GJQsqaUBKTNV-1">
          <mxGeometry x="-35" y="666" width="135.31" height="30" as="geometry" />
        </mxCell>
        <mxCell id="vSSBp46e8t80y5afnP1h-52" style="edgeStyle=orthogonalEdgeStyle;rounded=0;orthogonalLoop=1;jettySize=auto;html=1;exitX=0;exitY=0.5;exitDx=0;exitDy=0;entryX=0;entryY=0.5;entryDx=0;entryDy=0;" edge="1" parent="WIyWlLk6GJQsqaUBKTNV-1" source="vSSBp46e8t80y5afnP1h-48" target="vSSBp46e8t80y5afnP1h-12">
          <mxGeometry relative="1" as="geometry">
            <mxPoint x="-40" y="560" as="targetPoint" />
            <Array as="points">
              <mxPoint x="-90" y="770" />
              <mxPoint x="-90" y="210" />
            </Array>
          </mxGeometry>
        </mxCell>
        <mxCell id="vSSBp46e8t80y5afnP1h-58" style="edgeStyle=orthogonalEdgeStyle;rounded=0;orthogonalLoop=1;jettySize=auto;html=1;exitX=0.5;exitY=1;exitDx=0;exitDy=0;" edge="1" parent="WIyWlLk6GJQsqaUBKTNV-1" source="vSSBp46e8t80y5afnP1h-48">
          <mxGeometry relative="1" as="geometry">
            <mxPoint x="31" y="846" as="targetPoint" />
          </mxGeometry>
        </mxCell>
        <mxCell id="vSSBp46e8t80y5afnP1h-48" value="Ulang Kembali?" style="rhombus;whiteSpace=wrap;html=1;shadow=0;fontFamily=Helvetica;fontSize=12;align=center;strokeWidth=1;spacing=6;spacingTop=-4;" vertex="1" parent="WIyWlLk6GJQsqaUBKTNV-1">
          <mxGeometry x="-36.31" y="716" width="134.38" height="107.5" as="geometry" />
        </mxCell>
        <mxCell id="vSSBp46e8t80y5afnP1h-53" value="Yes" style="text;html=1;strokeColor=none;fillColor=none;align=center;verticalAlign=middle;whiteSpace=wrap;rounded=0;" vertex="1" parent="WIyWlLk6GJQsqaUBKTNV-1">
          <mxGeometry x="-80" y="740" width="40" height="20" as="geometry" />
        </mxCell>
        <mxCell id="vSSBp46e8t80y5afnP1h-55" value="PLC Berhenti" style="rounded=1;whiteSpace=wrap;html=1;fontSize=12;glass=0;strokeWidth=1;shadow=0;" vertex="1" parent="WIyWlLk6GJQsqaUBKTNV-1">
          <mxGeometry x="-35.93" y="846" width="135.31" height="30" as="geometry" />
        </mxCell>
        <mxCell id="vSSBp46e8t80y5afnP1h-63" style="edgeStyle=orthogonalEdgeStyle;rounded=0;orthogonalLoop=1;jettySize=auto;html=1;exitX=0.5;exitY=1;exitDx=0;exitDy=0;entryX=0.5;entryY=0;entryDx=0;entryDy=0;" edge="1" parent="WIyWlLk6GJQsqaUBKTNV-1" source="vSSBp46e8t80y5afnP1h-59" target="vSSBp46e8t80y5afnP1h-14">
          <mxGeometry relative="1" as="geometry" />
        </mxCell>
        <mxCell id="vSSBp46e8t80y5afnP1h-59" value="Tekan PB_START" style="rounded=1;whiteSpace=wrap;html=1;fontSize=12;glass=0;strokeWidth=1;shadow=0;" vertex="1" parent="WIyWlLk6GJQsqaUBKTNV-1">
          <mxGeometry x="-33.690000000000005" y="290" width="134" height="20" as="geometry" />
        </mxCell>
        <mxCell id="vSSBp46e8t80y5afnP1h-70" style="edgeStyle=orthogonalEdgeStyle;rounded=0;orthogonalLoop=1;jettySize=auto;html=1;exitX=0.5;exitY=1;exitDx=0;exitDy=0;entryX=0.5;entryY=0;entryDx=0;entryDy=0;" edge="1" parent="WIyWlLk6GJQsqaUBKTNV-1" source="vSSBp46e8t80y5afnP1h-64" target="vSSBp46e8t80y5afnP1h-69">
          <mxGeometry relative="1" as="geometry" />
        </mxCell>
        <mxCell id="vSSBp46e8t80y5afnP1h-64" value="Tekan PB_START" style="rounded=1;whiteSpace=wrap;html=1;fontSize=12;glass=0;strokeWidth=1;shadow=0;" vertex="1" parent="WIyWlLk6GJQsqaUBKTNV-1">
          <mxGeometry x="342" y="290" width="134" height="20" as="geometry" />
        </mxCell>
        <mxCell id="vSSBp46e8t80y5afnP1h-65" value="Yes" style="text;html=1;strokeColor=none;fillColor=none;align=center;verticalAlign=middle;whiteSpace=wrap;rounded=0;" vertex="1" parent="WIyWlLk6GJQsqaUBKTNV-1">
          <mxGeometry x="350" y="260" width="40" height="20" as="geometry" />
        </mxCell>
        <mxCell id="vSSBp46e8t80y5afnP1h-77" style="edgeStyle=orthogonalEdgeStyle;rounded=0;orthogonalLoop=1;jettySize=auto;html=1;exitX=0.5;exitY=1;exitDx=0;exitDy=0;entryX=0.5;entryY=0;entryDx=0;entryDy=0;" edge="1" parent="WIyWlLk6GJQsqaUBKTNV-1" source="vSSBp46e8t80y5afnP1h-69" target="vSSBp46e8t80y5afnP1h-75">
          <mxGeometry relative="1" as="geometry" />
        </mxCell>
        <mxCell id="vSSBp46e8t80y5afnP1h-69" value="Silinder bekerja 1 step" style="rounded=1;whiteSpace=wrap;html=1;fontSize=12;glass=0;strokeWidth=1;shadow=0;" vertex="1" parent="WIyWlLk6GJQsqaUBKTNV-1">
          <mxGeometry x="342" y="346" width="134" height="50" as="geometry" />
        </mxCell>
        <mxCell id="vSSBp46e8t80y5afnP1h-73" value="PLC Berhenti" style="rounded=1;whiteSpace=wrap;html=1;fontSize=12;glass=0;strokeWidth=1;shadow=0;" vertex="1" parent="WIyWlLk6GJQsqaUBKTNV-1">
          <mxGeometry x="340.69" y="566" width="135.31" height="30" as="geometry" />
        </mxCell>
        <mxCell id="vSSBp46e8t80y5afnP1h-78" style="edgeStyle=orthogonalEdgeStyle;rounded=0;orthogonalLoop=1;jettySize=auto;html=1;exitX=0.5;exitY=1;exitDx=0;exitDy=0;entryX=0.5;entryY=0;entryDx=0;entryDy=0;" edge="1" parent="WIyWlLk6GJQsqaUBKTNV-1" source="vSSBp46e8t80y5afnP1h-75" target="vSSBp46e8t80y5afnP1h-73">
          <mxGeometry relative="1" as="geometry" />
        </mxCell>
        <mxCell id="vSSBp46e8t80y5afnP1h-81" style="edgeStyle=orthogonalEdgeStyle;rounded=0;orthogonalLoop=1;jettySize=auto;html=1;exitX=1;exitY=0.5;exitDx=0;exitDy=0;entryX=1;entryY=0.5;entryDx=0;entryDy=0;" edge="1" parent="WIyWlLk6GJQsqaUBKTNV-1" source="vSSBp46e8t80y5afnP1h-75" target="vSSBp46e8t80y5afnP1h-64">
          <mxGeometry relative="1" as="geometry">
            <Array as="points">
              <mxPoint x="520" y="477" />
              <mxPoint x="520" y="300" />
            </Array>
          </mxGeometry>
        </mxCell>
        <mxCell id="vSSBp46e8t80y5afnP1h-75" value="Silinder telah bekerja dalam 1 siklus?" style="rhombus;whiteSpace=wrap;html=1;shadow=0;fontFamily=Helvetica;fontSize=12;align=center;strokeWidth=1;spacing=6;spacingTop=-4;" vertex="1" parent="WIyWlLk6GJQsqaUBKTNV-1">
          <mxGeometry x="334.59000000000003" y="417.5" width="148.13" height="118.5" as="geometry" />
        </mxCell>
        <mxCell id="vSSBp46e8t80y5afnP1h-79" value="Yes" style="text;html=1;strokeColor=none;fillColor=none;align=center;verticalAlign=middle;whiteSpace=wrap;rounded=0;" vertex="1" parent="WIyWlLk6GJQsqaUBKTNV-1">
          <mxGeometry x="414" y="536" width="40" height="20" as="geometry" />
        </mxCell>
        <mxCell id="vSSBp46e8t80y5afnP1h-80" value="No" style="text;html=1;strokeColor=none;fillColor=none;align=center;verticalAlign=middle;whiteSpace=wrap;rounded=0;" vertex="1" parent="WIyWlLk6GJQsqaUBKTNV-1">
          <mxGeometry x="478.88" y="446" width="40" height="20" as="geometry" />
        </mxCell>
      </root>
    </mxGraphModel>
  </diagram>
</mxfile>
